<?xml version="1.0" encoding="UTF-8" standalone="no"?>
<!-- Created with Inkscape (http://www.inkscape.org/) -->

<svg
   xmlns:dc="http://purl.org/dc/elements/1.1/"
   xmlns:cc="http://creativecommons.org/ns#"
   xmlns:rdf="http://www.w3.org/1999/02/22-rdf-syntax-ns#"
   xmlns:svg="http://www.w3.org/2000/svg"
   xmlns="http://www.w3.org/2000/svg"
   xmlns:sodipodi="http://sodipodi.sourceforge.net/DTD/sodipodi-0.dtd"
   xmlns:inkscape="http://www.inkscape.org/namespaces/inkscape"
   inkscape:version="0.48.5 r10040"
   version="1.1"
   id="svg2"
   height="265.07944"
   width="589.71875"
   sodipodi:docname="huygens.ink\.svg">
  <sodipodi:namedview
     id="base"
     pagecolor="#ffffff"
     bordercolor="#666666"
     borderopacity="1.0"
     inkscape:pageopacity="0.0"
     inkscape:pageshadow="2"
     inkscape:zoom="1.4"
     inkscape:cx="310.822"
     inkscape:cy="59.05634"
     inkscape:document-units="px"
     inkscape:current-layer="layer1"
     showgrid="false"
     inkscape:window-width="1600"
     inkscape:window-height="834"
     inkscape:window-x="0"
     inkscape:window-y="27"
     inkscape:window-maximized="1"
     fit-margin-top="0"
     fit-margin-left="0"
     fit-margin-right="0"
     fit-margin-bottom="0" />
  <defs
     id="defs4">
    <marker
       inkscape:stockid="Arrow1Lend"
       orient="auto"
       refY="0"
       refX="0"
       id="Arrow1Lend"
       style="overflow:visible">
      <path
         id="path3860"
         d="M 0,0 5,-5 -12.5,0 5,5 0,0 z"
         style="fill-rule:evenodd;stroke:#000000;stroke-width:1pt"
         transform="matrix(-0.8,0,0,-0.8,-10,0)"
         inkscape:connector-curvature="0" />
    </marker>
  </defs>
  <metadata
     id="metadata7">
    <rdf:RDF>
      <cc:Work
         rdf:about="">
        <dc:format>image/svg+xml</dc:format>
        <dc:type
           rdf:resource="http://purl.org/dc/dcmitype/StillImage" />
        <dc:title></dc:title>
      </cc:Work>
    </rdf:RDF>
  </metadata>
  <g
     inkscape:label="Layer 1"
     inkscape:groupmode="layer"
     id="layer1"
     transform="translate(-55.40625,-8.4007778)">
    <path
       style="color:#000000;fill:#1ac617;fill-opacity:1;fill-rule:nonzero;stroke:#000000;stroke-width:0.625;stroke-opacity:1;marker:none;visibility:visible;display:inline;overflow:visible;enable-background:accumulate"
       d="m 391.29458,63.786201 c -2.317,-3.155633 -7.78984,2.558062 -8.45237,-2.171089 -1.0137,-4.074024 -6.52121,-2.785589 -5.63689,1.304655 0.24359,2.253235 0.84665,4.593126 -2.20006,3.315087 -3.01765,-0.42492 -6.9135,0.251089 -9.335,-0.523329 0.86439,-4.670967 -2.72387,-9.774583 1.28499,-13.521908 -0.70655,-2.61946 -2.95384,-4.693521 -4.05817,-6.786429 2.73096,-2.403688 7.41911,-5.291826 3.8999,-9.412779 -2.7262,2.7072 -6.16584,5.000209 -8.31025,7.827948 -1.46844,-0.593849 -4.39652,1.373665 -4.2639,-0.625693 -2.18584,-0.355906 -5.4629,-0.351543 -2.6188,-2.947826 1.08407,-3.175012 1.58675,-7.556472 -1.40904,-9.854455 1.04725,-4.608192 2.38977,-9.788401 5.10529,-13.520835 4.61701,0.91356 4.49481,-7.3180784 0.0519,-6.434558 -2.42102,1.080867 -2.95136,4.430719 -6.3211,3.718325 -3.87334,0.415339 -8.57645,1.572395 -12.12308,0.354462 0.54652,-5.6912224 -0.26422,-8.272376 -4.14702,-2.6208 -3.01745,2.904453 1.10933,5.917798 0.3571,9.086519 0.73278,4.884346 0.32891,11.066095 4.36912,14.597117 -2.95649,4.369581 1.55833,11.226205 7.14388,10.178158 1.32928,0.411659 3.9031,0.126431 3.34606,0.242504 -1.57301,0.739838 1.24716,0.103931 -0.52635,0.980427 0.29612,-1.216616 0.69283,2.588844 0.0354,1.48519 -2.76652,0.202327 -5.98054,1.313802 -9.01658,-0.185054 -4.14718,-0.552183 -2.97212,4.42937 0.45863,4.403766 1.61797,0.86032 5.40082,1.145166 8.24003,0.04705 2.93964,0.452939 3.69339,-2.756935 5.20252,-2.922365 2.15432,1.728201 5.3098,-0.618395 6.73545,-0.898159 0.66499,3.012664 2.58039,7.30679 -1.87569,7.879862 -5.15644,1.047863 -11.07272,2.524843 -12.61454,8.435937 1.00594,0.349345 7.66857,-3.542411 6.55057,3.594075 1.66474,5.302342 2.47296,14.57837 9.62797,14.92426 5.60528,0.302744 0.98273,-7.331876 5.65155,-8.916624 2.72409,-3.554513 6.95628,-2.218406 9.36176,0.818582 2.20314,2.269084 4.39731,6.46395 3.97702,9.175194 -5.63258,-2.843623 -12.72768,-0.0095 -18.01969,2.625307 -3.95329,1.743411 -5.10936,7.295459 -1.47903,9.95743 1.14081,2.494476 3.15948,4.660247 5.49532,5.782997 0.36355,2.70086 1.2447,5.28386 2.25599,7.81302 -3.7723,-0.83894 1.00503,4.32336 2.8166,5.89676 4.38363,3.52401 2.59279,11.69983 8.13418,13.76971 4.85862,-1.08913 -0.98783,8.08365 4.3622,7.40385 3.09617,-1.24647 5.99275,-2.36544 8.41776,-2.04289 -2.53656,-4.59085 4.42671,-2.65012 6.05246,-2.85055 -1.94452,2.43599 1.05709,4.52909 3.39176,3.15561 1.29121,2.73019 -2.75376,4.85501 -4.24805,6.666 -2.72004,-1.99977 -8.25916,-6.14845 -5.30327,0.0792 0.71263,1.63763 2.7801,4.01974 -0.0977,2.07724 -5.98858,-1.78766 -2.6788,1.05995 -3.57619,3.67794 -3.01601,4.20453 1.18823,9.52012 5.75727,9.65885 0.7202,1.46746 1.18438,6.8992 4.38642,3.94858 3.21183,0.15735 4.83667,7.03766 8.07451,3.25713 -0.0136,-3.71068 4.96388,-1.17655 6.6791,-4.14767 1.42519,3.02219 7.43156,3.96532 6.1019,-0.55299 -1.36196,-4.62498 -5.00121,-9.66678 -4.43186,-14.19452 0.94674,-2.44619 4.75507,-11.17039 0.32411,-6.50587 -1.83628,1.10734 -3.78208,4.45909 -4.7423,1.00231 -0.91811,-2.1306 -5.71407,-1.48017 -2.74009,-4.39547 4.07499,-3.24879 -1.14233,-7.50859 -3.04069,-10.77822 -4.83136,-4.86225 -9.26841,4.781 -14.43549,2.32033 -5.28292,0.91497 -8.06168,-6.82285 -6.87524,-11.04592 0.93287,-1.67701 3.76732,-2.53575 1.89636,-5.02401 -1.36251,-3.56861 -3.3271,-2.348 -4.64164,-6.32674 -0.13712,-1.17955 2.07827,-1.14378 3.917,-0.24583 5.14841,1.19846 13.47231,1.1285 15.47224,-4.78579 0.33751,-3.162171 -5.4386,-7.518798 -5.23509,-2.145141 -1.20063,4.700971 -6.15279,-0.535896 -8.64593,-1.131516 -1.63025,-1.171067 -4.9698,0.227483 -2.70486,-2.364522 2.46899,-6.705156 -0.86288,-15.67704 5.37031,-20.560142 0.45907,-3.604595 4.45241,-7.422821 2.82136,-11.021721 z m 22.00586,82.089949 c -0.17831,-0.0874 0.17501,-0.19845 0,0 z m -9.17759,-0.3193 c 0.98079,3.61894 -0.78343,2.221 -1.38317,-0.0433 0.24325,0.28292 1.66525,-1.16196 1.38317,0.0433 z m 4.3641,13.3374 c -0.88326,1.10991 -2.62062,-1.70455 -0.40071,-0.37052 0.10579,0.15445 0.30616,0.21602 0.40071,0.37052 z m -3.75473,2.25535 c -0.8616,5.46688 -6.72841,-2.53161 -2.22403,-0.56249 -0.47948,2.39869 4.01999,-1.43064 2.22403,0.56249 z m -8.05185,-7.49616 c -4.75907,-5.78814 4.471,-2.932 0,0 z M 352.72156,49.510503 c -1.59865,0.507738 0.21619,-0.865197 0,0 z m -0.83741,-0.04318 c -0.12222,-0.129035 0.10524,-0.0029 0,0 z m -0.11089,-0.01973 c -0.92246,0.384611 0.0631,-0.671912 0,0 z m -3.64368,-4.512027 c -1.04145,1.555765 0.0914,-0.902859 0,0 z m 0.0178,0.19684 c -1.32551,1.632341 0.12926,-0.866595 0,0 z m 0.034,0.155661 c -0.32508,0.298022 -0.0109,-0.225534 0,0 z m -0.82686,0.293268 c 0.11993,-0.556203 1.42347,-1.299838 0,0 z m 44.89843,109.802975 c -2.89703,2.86824 -3.8095,-2.82124 -0.92152,-1.04311 1.02015,-0.28536 0.62441,1.08085 0.92152,1.04311 z m -1.12218,0.86574 c 2.37681,-0.78595 -1.70813,-1.14116 0,0 z"
       id="path2989"
       inkscape:connector-curvature="0" />
    <path
       style="color:#000000;fill:#1ac617;fill-opacity:1;fill-rule:nonzero;stroke:#000000;stroke-width:0.625;stroke-opacity:1;marker:none;visibility:visible;display:inline;overflow:visible;enable-background:accumulate"
       d="m 547.11374,157.15267 c -1.57373,-2.80697 -5.78176,-4.16773 -8.27424,-1.71673 1.04835,-2.70543 -1.776,-6.4224 -2.56904,-7.13318 0.31001,4.61876 -2.70048,4.93548 -6.07347,3.55763 -3.81054,-0.94191 -7.68364,-2.31162 -11.29375,-3.73851 1.99283,-2.66561 4.5426,-6.46537 0.46462,-8.45802 -3.17461,-2.86744 -5.79448,-9.35923 -3.39412,-12.46701 6.33405,0.25132 8.24382,-8.27074 7.30128,-13.19641 -1.61906,-3.88635 -5.66163,-0.34789 -6.35786,2.25206 -1.63932,2.99876 -2.65652,2.91895 -4.04548,-0.28181 -4.20253,-6.25546 -8.82814,-12.20912 -13.94861,-17.745776 -0.18211,-0.70484 -4.00581,-3.88277 -6.01675,-1.88923 -7.08213,-0.81265 -12.25709,-6.90958 -18.86253,-8.42307 -4.13093,2.09741 0.76583,6.09715 1.48902,8.97407 0.46119,2.58541 5.496,4.148126 4.37232,6.110626 -3.09888,3.23703 -3.62695,8.53498 -7.697,10.52556 -1.33499,4.93721 6.08349,3.63346 8.93311,4.06121 2.32976,0.3967 6.33259,-1.50153 5.10475,2.37463 -0.62765,3.94401 2.05429,8.46769 0.92567,11.87695 -1.54198,2.12338 -2.0588,7.85807 1.959,5.94204 1.05823,2.49807 -0.8917,7.20906 2.39956,7.73347 -4.83207,9.41614 3.19233,-2.00788 3.90066,1.61919 -0.0513,2.8951 0.89737,6.51169 4.06186,7.38627 -1.84099,7.6505 -5.96854,15.55118 -4.88115,23.53163 2.31313,4.8136 7.42554,-0.78859 9.78145,-2.5794 3.10311,-3.14805 8.95239,-4.765 11.17836,0.25244 2.58369,-1.64189 0.76141,4.22749 1.03254,5.64382 -0.8406,2.38567 -0.079,10.69526 -3.54277,5.65791 -2.00533,0.15383 1.4618,6.08946 0.43863,8.67866 -1.4482,4.61946 -6.12219,-6.41126 -3.04198,4.07724 0.37232,3.49743 4.50971,7.34576 8.14668,6.26829 1.71326,-0.60863 1.58522,-4.13925 3.16386,-0.89582 2.5052,3.04432 6.91097,6.21998 8.26048,9.28161 -2.76255,2.07878 -5.41443,4.27312 -8.44555,5.95448 1.30291,-7.88061 -2.22434,-3.28614 -4.31208,0.93943 -2.09475,3.95139 2.43867,6.941 5.99885,5.98592 6.21655,-0.19634 14.15814,-2.39677 18.94979,2.74862 0.62673,7.08664 -3.58788,2.17118 -4.40841,7.27082 -1.68428,3.35312 1.66564,7.16527 5.19098,5.49609 3.57914,-1.1317 9.98039,-3.51416 11.34938,1.75473 3.09868,3.80126 -2.96174,3.25432 -4.36184,5.94397 -0.99315,2.19422 -6.0615,4.26349 -4.6263,5.04221 2.80752,0.1063 -0.60255,4.15795 0.55651,6.12805 0.36234,5.59972 6.74216,6.67871 11.17882,5.8181 -0.0416,5.58275 0.42291,7.2039 4.63746,4.1342 3.47884,1.50765 7.49874,-1.81379 8.39335,-4.86556 7.71912,-3.03443 5.50971,-17.05676 -3.11225,-16.76686 -0.31222,-0.21857 -1.84711,3.08088 -3.94092,0.57755 2.69076,-3.73155 3.73301,-9.56369 0.47371,-13.10039 1.63605,-2.38622 -0.6383,-5.358 -0.79509,-7.22968 2.73623,-2.97883 0.0947,-7.2431 -0.17319,-10.60597 -2.00711,1.95296 -2.36597,10.18073 -6.11921,6.60947 -2.16949,-2.32117 -6.63885,-6.29059 -3.22997,-9.175 2.0933,-8.23335 -2.90464,-16.86062 -8.01317,-23.10314 -1.54215,-2.30494 -4.64006,-2.29814 -6.64355,-2.35871 -0.53191,-1.8918 3.5173,-4.46723 4.67817,-4.19884 1.86905,1.94974 8.87743,1.40669 6.19051,-1.86638 -2.36589,-5.77332 -4.42899,-11.5972 -4.33821,-17.84204 -1.65402,-2.96196 3.71338,-3.16248 3.18128,-6.57272 0.0137,-1.42062 -0.40684,-2.8021 -1.17417,-3.99869 z m 13.16441,86.71546 c -4.47971,-0.93983 3.01348,-5.1981 0,0 z m -64.2502,-140.85038 c -1.62815,-0.35193 -8.81122,-0.90188 -6.11501,-1.8787 2.80689,-1.523966 5.37683,-0.93525 6.11501,1.8787 z m 69.98235,160.0139 c 0.548,3.6448 -5.18296,3.86698 -2.03106,0.89366 0.35864,0.13123 2.6294,-2.0088 2.03106,-0.89366 z"
       id="path2991"
       inkscape:connector-curvature="0" />
    <path
       style="color:#000000;fill:#1ac617;fill-opacity:1;fill-rule:nonzero;stroke:#000000;stroke-width:0.625;stroke-opacity:1;marker:none;visibility:visible;display:inline;overflow:visible;enable-background:accumulate"
       d="m 302.80609,116.6918 c -3.83567,-3.04169 -8.55724,-2.1542 -12.81379,-3.29078 0.8712,3.6703 3.53516,8.2922 -0.30792,9.97947 -2.73535,1.28189 -5.2665,1.54447 -4.32891,-3.28043 -1.74092,-7.10708 -8.29406,-7.36405 -12.81135,-8.3841 -0.12156,-2.63635 -6.14447,-1.46399 -6.68957,1.35073 1.41942,6.40215 -3.29147,-1.82535 -5.01628,2.16038 -1.73065,3.45937 -0.72848,12.6075 2.81322,6.73743 1.7058,3.74056 4.86005,9.62802 4.80692,12.98147 -3.7424,1.03512 -3.45618,7.54257 -5.86397,10.67425 -1.41545,8.63525 7.13158,11.28507 10.52666,16.04931 3.11546,2.46775 4.05694,8.66413 3.55573,12.63441 -3.16572,4.84215 -6.75948,15.09027 -0.83823,18.9375 6.02372,-0.12504 13.28131,-7.51203 19.64112,-3.26136 1.61409,6.34848 -6.75813,4.08132 -8.3507,8.86722 -3.02853,1.07768 -1.19048,6.88218 -3.93064,9.41588 -4.41107,7.27773 3.19093,1.65791 6.26878,2.49293 3.99087,1.05066 7.32959,6.65719 11.80877,5.29161 0.12989,5.39126 5.63506,6.79948 7.88769,10.42056 -1.78122,-5.76375 -0.13778,-3.19735 0.86827,0.006 1.57194,3.38502 4.71182,2.59062 6.96222,1.37647 -2.58834,-5.04455 1.13901,-0.59441 -0.003,1.54944 -0.82408,2.27817 -3.11288,7.85922 -1.98773,8.37639 0.19858,3.03365 0.26205,4.55201 -3.15499,4.71663 -2.6714,2.20624 -4.84158,5.45178 -7.32961,8.20127 3.08438,0.41633 8.06576,-1.77724 9.96295,-0.77108 2.36835,4.73461 5.97561,9.30179 10.83358,9.26523 4.59026,1.77787 10.1403,-0.37218 11.60584,-6.77555 5.55059,-0.78769 4.3717,-11.67782 2.81257,-16.77217 -2.04853,-1.87723 -0.49548,-3.42127 -2.78152,-5.36512 -1.51167,-1.2415 -5.14496,-2.69095 -1.75001,-2.89473 1.83585,-1.90425 6.23095,-2.81075 3.96406,-7.35958 -2.62222,-3.1877 -6.16613,-4.45075 -9.4342,-5.74098 1.23885,-3.1319 -2.45555,-5.4262 -1.00028,-11.72967 -0.23504,-3.04293 -2.16293,-7.21449 1.15911,-8.11377 1.64925,-6.45719 -6.94104,-7.12973 -5.38708,-13.76589 -0.58971,-4.13774 -0.57068,-8.50321 -3.26661,-11.36677 -0.31249,-5.74153 -4.50939,-8.2684 -8.02631,-7.81407 -2.58461,-2.69335 -6.22163,-7.29287 -3.57803,-11.76688 -0.58205,-4.93431 -0.65636,-9.49811 0.66143,-14.40485 -4.26685,5.5265 -10.35286,3.32049 -13.31232,-2.84261 -1.56789,-2.51708 -4.418,-8.83019 0.36479,-8.02829 2.51266,-0.68291 8.65018,-2.62695 5.45894,-7.7551 z m 15.00171,57.44814 c 1.3241,5.5665 -6.37778,-8.7569 -2.30614,-3.44877 0.71876,1.15188 2.46903,1.52227 2.30614,3.44877 z m 15.30993,54.55641 c -1.84856,0.13527 0.56719,-1.94666 0,0 z m -2.83636,-4.37293 c -1.62139,0.0111 4.40919,5.87546 -1.4513,3.00624 -0.40636,-2.55744 -3.32906,-2.95531 -2.72368,-6.60929 1.12891,2.23269 3.33918,5.12183 4.17494,3.60309 z m 0.89333,6.37436 c -3.19478,-0.4149 0.96661,-3.5045 0.0507,-0.52284 l -0.0507,0.52284 z m -10.0951,-5.16313 c -3.61512,1.85941 4.09334,-6.59833 0,0 z m -5.25334,-6.18576 c -1.04282,5.40226 -6.25194,-4.45014 -1.49531,-0.90191 0.32711,0.2466 1.21555,0.52107 1.49531,0.90191 z m 3.19179,8.68119 c -2.96483,2.99457 -1.8882,-3.38669 0,0 z m 11.2782,31.07246 c -5.52009,-2.40081 2.14698,-4.41036 0,0 z m -7.34243,-14.30031 c -2.15676,1.7694 -3.66139,7.6429 -5.28209,7.31434 1.10723,-2.49564 2.48021,-4.27435 3.88939,-6.50128 -0.6835,-2.75456 2.5391,-3.75314 1.3927,-0.81306 z m -42.95098,-91.97448 c 0.34805,0.77134 -0.26852,-0.37591 0,0 z m 0.73008,3.90915 c -0.81784,3.85082 3.29756,7.94386 0.19409,10.57674 -1.17185,-3.23174 -1.65725,-6.72393 -1.36423,-10.44062 -0.68351,1.89039 1.36086,-1.13791 1.17014,-0.13611 z m 0.0225,26.58689 c -0.69955,0.75895 -0.10161,-1.99494 0,0 z"
       id="path2995"
       inkscape:connector-curvature="0" />
    <path
       style="color:#000000;fill:#1ac617;fill-opacity:1;fill-rule:nonzero;stroke:#000000;stroke-width:0.625;stroke-opacity:1;marker:none;visibility:visible;display:inline;overflow:visible;enable-background:accumulate"
       d="m 148.19348,110.28564 c 2.60054,2.10529 8.24412,3.16697 6.27009,7.8307 -2.95913,5.25899 -0.60903,4.76019 3.58285,3.08097 4.19673,-0.60804 7.98386,0.71814 11.60828,2.38522 -0.74056,0.54121 0.52324,2.47392 -3.57424,3.66455 -7.03864,4.14983 -11.14143,12.50164 -10.16206,20.49853 2.62191,5.46776 9.89369,1.70898 13.71213,-0.21221 4.21829,-3.18574 1.62487,1.48394 -0.31687,3.44178 -2.75846,3.00589 -6.27141,5.43169 -10.2967,6.29842 0.73045,4.41628 2.091,8.613 1.33817,12.86044 2.12388,2.13842 1.69096,6.94129 5.46627,5.08134 2.77992,-1.47812 -3.32163,-7.82274 2.08899,-8.23326 1.52915,-0.28773 7.29772,-3.44739 5.11663,0.29286 -3.96688,5.3362 2.02541,2.25408 4.74213,-0.24695 5.20557,0.94058 10.73514,6.6033 10.03147,12.1808 -1.83644,1.73678 -2.9957,3.17391 -1.59341,5.87052 0.61402,2.34227 2.93289,4.51495 -0.28852,5.9078 -3.88717,3.43667 -5.87353,10.11734 -11.47643,9.50302 -2.80696,0.46085 -5.93734,1.91431 -4.13071,5.27714 5.34269,-2.76764 3.30923,7.47837 8.902,6.3178 5.25957,-1.94986 1.6515,-10.20965 6.86502,-11.52669 3.06741,-2.33648 6.67206,-3.7537 9.60294,-6.08848 2.2459,-2.19139 -4.22563,-5.01555 0.63122,-4.41245 3.50429,-0.14438 2.16025,5.18476 5.81504,5.65707 5.32372,2.09624 8.90545,-4.82181 6.02502,-8.94852 -1.37109,-2.93927 -4.00735,-4.99248 -6.13183,-7.37846 2.24416,6.85591 -1.57231,2.85038 -3.75029,-0.0757 -1.4898,-1.67122 -4.02237,-6.25501 0.14045,-6.36567 8.67055,-0.89553 -4.06915,-2.90543 -1.16674,-4.99431 3.60389,-3.40733 -3.01207,-6.22608 -4.82262,-6.55001 0.94724,-2.04959 2.52594,-4.51314 4.81101,-2.31728 2.80915,2.05666 7.94365,-0.80269 4.74067,-3.88942 -1.81383,-2.54569 -5.13018,-2.0744 -7.49844,-2.24237 -3.60602,-3.49733 3.96107,-6.69752 1.78829,-10.62248 -0.68776,-2.74227 -5.42477,0.48886 -3.39276,-3.08077 0.63443,-2.51026 1.37723,-6.27789 4.8345,-5.23535 2.7,-0.56505 4.54376,-1.19434 6.92519,0.12002 4.94776,-1.16919 0.68134,-7.90732 -3.11107,-7.30863 -6.86875,-3.55067 -3.86943,-2.21076 -4.62545,1.71639 -4.56681,3.187 -12.07936,-0.0858 -14.33376,-4.87965 -1.14527,-4.20822 4.78439,-6.92732 6.57638,-10.59196 1.54537,-1.66845 2.72576,-4.30642 3.27355,-6.05378 1.67448,2.92452 7.08659,2.18985 5.62202,-1.62804 -1.38257,-4.66788 -5.99789,-8.938106 -8.90191,-11.480956 4.60574,-1.75832 0.44536,-6.81491 -2.77706,-7.39562 -3.5841,-1.26394 -6.71911,-2.60297 -9.19045,-5.57316 -0.13723,-3.50371 -6.3448,-0.81679 -5.54816,-5.38453 2.41155,-1.17903 4.01985,-4.58906 7.13481,-3.96921 1.98808,-1.6911 5.41768,-4.59607 2.17521,-7.13888 -0.46072,-2.29577 1.5997,-1.96198 -2.43779,-2.47872 -2.08618,-0.0803 -4.25657,0.81503 -4.45196,-2.20847 1.14719,-3.05084 0.19895,-8.16598 -3.71157,-7.87435 -2.22048,-2.53299 -4.23732,1.08035 -5.68268,1.82065 -8.37361,-0.34484 3.56227,3.02261 -0.613,7.69908 0.37287,3.65251 -4.78485,1.58327 -6.98728,3.22834 -12.00843,3.45737 6.22872,2.34416 1.55393,9.16475 -3.65084,0.47628 4.03269,1.74552 2.12766,2.92745 -3.41158,0.0723 -9.95131,-7.01994 -8.31215,-0.27041 0.11349,4.69246 5.92416,6.45606 9.61773,4.7105 2.62275,1.23959 7.17661,-0.18308 8.74185,2.09977 0.53436,5.92644 -5.99681,9.70282 -10.59544,12.14456 -3.357,-2.31373 -7.94768,3.25374 -3.72463,5.051516 3.31604,-0.45133 6.34729,-1.085556 9.56559,0.37954 1.89745,0.85987 4.40584,-1.536486 5.30825,-1.227626 -1.2328,7.169336 -12.80233,9.420396 -18.20239,5.422206 -2.10436,0.87611 -6.78245,2.00075 -4.927,5.25066 z m 9.64642,-44.074896 c 1.96579,2.93853 -2.31932,0.87772 -0.17815,0.10553 l 0.17815,-0.10553 z m 4.84196,2.65069 c 0.30669,5.40549 -7.09269,-2.80022 0,0 z m 9.43987,23.14356 c -2.60904,5.64721 -5.61149,-1.70402 0,0 z m 2.14661,-4.25166 c 1.3977,-0.87759 3.10078,0.0706 0.55889,1.07942 -0.24204,-0.31696 -0.40646,-0.7587 -0.55889,-1.07942 z m 2.8832,4.02041 c 2.67679,-0.81137 6.98474,0.59296 7.96619,2.00651 -2.6137,2.64506 -6.46349,-1.30874 -9.59998,-1.92597 l 0.99878,-0.0492 0.63501,-0.0313 z"
       id="path2997"
       inkscape:connector-curvature="0" />
    <path
       sodipodi:type="arc"
       style="color:#000000;fill:#dd0000;fill-opacity:1;fill-rule:nonzero;stroke:#000000;stroke-width:0.625;stroke-linecap:round;stroke-miterlimit:4;stroke-opacity:1;stroke-dasharray:none;stroke-dashoffset:0;marker:none;visibility:visible;display:inline;overflow:visible;enable-background:accumulate"
       id="path3847"
       sodipodi:cx="104.28571"
       sodipodi:cy="143.07646"
       sodipodi:rx="8.5714283"
       sodipodi:ry="8.5714283"
       d="m 112.85714,143.07646 c 0,4.73387 -3.83756,8.57143 -8.57143,8.57143 -4.733866,0 -8.571425,-3.83756 -8.571425,-8.57143 0,-4.73387 3.837559,-8.57143 8.571425,-8.57143 4.73387,0 8.57143,3.83756 8.57143,8.57143 z"
       transform="translate(-40,-1.4285714)" />
    <path
       sodipodi:type="star"
       style="color:#000000;fill:#dd0000;fill-opacity:1;fill-rule:nonzero;stroke:#000000;stroke-width:0.625;stroke-linecap:round;stroke-miterlimit:4;stroke-opacity:1;stroke-dasharray:none;stroke-dashoffset:0;marker:none;visibility:visible;display:inline;overflow:visible;enable-background:accumulate"
       id="path3849"
       sodipodi:sides="5"
       sodipodi:cx="633.57141"
       sodipodi:cy="130.21931"
       sodipodi:r1="4.8875103"
       sodipodi:r2="12.326186"
       sodipodi:arg1="1.1006129"
       sodipodi:arg2="1.7708928"
       inkscape:flatsided="false"
       inkscape:rounded="0"
       inkscape:randomized="0"
       d="m 635.7857,134.57646 -4.66429,7.7231 -1.00964,-8.6279 -8.78645,-2.04943 7.89363,-3.62639 -0.76604,-8.98972 5.88817,6.38667 8.31301,-3.50653 -4.25454,7.57358 5.90377,6.82257 z" />
    <path
       style="fill:none;stroke:#000000;stroke-width:1px;stroke-linecap:butt;stroke-linejoin:miter;stroke-opacity:1;marker-mid:url(#Arrow1Lend);marker-end:url(#Arrow1Lend)"
       d="m 69.285714,137.36218 c 0,0 67.857146,-84.999997 96.428576,-87.857141 14.28571,-1.428571 86.42857,33.392858 137.67857,64.464291 51.25,31.07142 90.17857,57.67856 106.60714,55.5357 32.85714,-4.28572 32.85714,-74.285706 65,-84.285706 32.14286,-10 150.71429,43.571426 150.71429,43.571426"
       id="path3851"
       inkscape:connector-curvature="0"
       sodipodi:nodetypes="cssssc" />
  </g>
</svg>
